# xmcd CD database file
#
# Track frame offsets:
#	225
#	16037
#	39723
#	57396
#	78487
#	103359
#	122502
#	148319
#	172141
#	201242
#	220014
#	244570
#	273111
#	287913
#
# Disc length: 4130 seconds
#
# Revision: 2
# Processed by: cddbd v1.5.2PL0 Copyright (c) Steve Scherf et al.
# Submitted via: CDex 1.70beta2
#
DISCID=d3101f0e
DTITLE=Blues Breakers - the anniversary album live
DYEAR=2008
DGENRE=Blues
TTITLE0=That ´s allright Mama
TTITLE1=Congo Square
TTITLE2=Big Headed Woman
TTITLE3=Walking The Dog
TTITLE4=The Thrill Is Gone
TTITLE5=The Hucklebuck
TTITLE6=Need Your Love So Bad
TTITLE7=Jersey Girl
TTITLE8=Running Shoes
TTITLE9=Route 66
TTITLE10=Mona - Iko Iko
TTITLE11=Little By Little
TTITLE12=Pack, Fair and Square
TTITLE13=Maggie ´s Farm
EXTD=YEAR: 2008
EXTT0=
EXTT1=
EXTT2=
EXTT3=
EXTT4=
EXTT5=
EXTT6=
EXTT7=
EXTT8=
EXTT9=
EXTT10=
EXTT11=
EXTT12=
EXTT13=
PLAYORDER=
